<mxfile host="Electron" agent="Mozilla/5.0 (Windows NT 10.0; Win64; x64) AppleWebKit/537.36 (KHTML, like Gecko) draw.io/24.7.5 Chrome/126.0.6478.183 Electron/31.3.0 Safari/537.36" version="24.7.5">
  <diagram name="Page-1" id="2YBvvXClWsGukQMizWep">
    <mxGraphModel dx="377" dy="565" grid="1" gridSize="10" guides="1" tooltips="1" connect="1" arrows="1" fold="1" page="1" pageScale="1" pageWidth="850" pageHeight="1100" math="0" shadow="0">
      <root>
        <mxCell id="0" />
        <mxCell id="1" parent="0" />
        <mxCell id="aM9ryv3xv72pqoxQDRHE-1" value="Initiator" style="shape=umlLifeline;perimeter=lifelinePerimeter;whiteSpace=wrap;html=1;container=0;dropTarget=0;collapsible=0;recursiveResize=0;outlineConnect=0;portConstraint=eastwest;newEdgeStyle={&quot;edgeStyle&quot;:&quot;elbowEdgeStyle&quot;,&quot;elbow&quot;:&quot;vertical&quot;,&quot;curved&quot;:0,&quot;rounded&quot;:0};" parent="1" vertex="1">
          <mxGeometry x="40" y="40" width="100" height="270" as="geometry" />
        </mxCell>
        <mxCell id="aM9ryv3xv72pqoxQDRHE-2" value="" style="html=1;points=[];perimeter=orthogonalPerimeter;outlineConnect=0;targetShapes=umlLifeline;portConstraint=eastwest;newEdgeStyle={&quot;edgeStyle&quot;:&quot;elbowEdgeStyle&quot;,&quot;elbow&quot;:&quot;vertical&quot;,&quot;curved&quot;:0,&quot;rounded&quot;:0};" parent="aM9ryv3xv72pqoxQDRHE-1" vertex="1">
          <mxGeometry x="45" y="60" width="10" height="20" as="geometry" />
        </mxCell>
        <mxCell id="aM9ryv3xv72pqoxQDRHE-5" value="Participant" style="shape=umlLifeline;perimeter=lifelinePerimeter;whiteSpace=wrap;html=1;container=0;dropTarget=0;collapsible=0;recursiveResize=0;outlineConnect=0;portConstraint=eastwest;newEdgeStyle={&quot;edgeStyle&quot;:&quot;elbowEdgeStyle&quot;,&quot;elbow&quot;:&quot;vertical&quot;,&quot;curved&quot;:0,&quot;rounded&quot;:0};" parent="1" vertex="1">
          <mxGeometry x="220" y="40" width="100" height="270" as="geometry" />
        </mxCell>
        <mxCell id="aM9ryv3xv72pqoxQDRHE-6" value="" style="html=1;points=[];perimeter=orthogonalPerimeter;outlineConnect=0;targetShapes=umlLifeline;portConstraint=eastwest;newEdgeStyle={&quot;edgeStyle&quot;:&quot;elbowEdgeStyle&quot;,&quot;elbow&quot;:&quot;vertical&quot;,&quot;curved&quot;:0,&quot;rounded&quot;:0};" parent="aM9ryv3xv72pqoxQDRHE-5" vertex="1">
          <mxGeometry x="45" y="80" width="10" height="130" as="geometry" />
        </mxCell>
        <mxCell id="lB6DgSPYb84h1yMnMmWB-8" value="" style="rounded=0;whiteSpace=wrap;html=1;" parent="1" vertex="1">
          <mxGeometry x="85" y="150" width="10" height="10" as="geometry" />
        </mxCell>
        <mxCell id="lB6DgSPYb84h1yMnMmWB-11" value="" style="rounded=0;whiteSpace=wrap;html=1;" parent="1" vertex="1">
          <mxGeometry x="85" y="230" width="10" height="20" as="geometry" />
        </mxCell>
        <mxCell id="wpWaf2XPzZ1jA3-AOAEa-4" style="edgeStyle=orthogonalEdgeStyle;rounded=0;orthogonalLoop=1;jettySize=auto;html=1;exitX=0.5;exitY=1;exitDx=0;exitDy=0;entryX=1;entryY=0;entryDx=0;entryDy=0;endArrow=open;endFill=0;" edge="1" parent="1" source="wpWaf2XPzZ1jA3-AOAEa-1" target="wpWaf2XPzZ1jA3-AOAEa-3">
          <mxGeometry relative="1" as="geometry">
            <Array as="points">
              <mxPoint x="245" y="190" />
            </Array>
          </mxGeometry>
        </mxCell>
        <mxCell id="wpWaf2XPzZ1jA3-AOAEa-5" value="Agree" style="edgeLabel;html=1;align=center;verticalAlign=middle;resizable=0;points=[];" vertex="1" connectable="0" parent="wpWaf2XPzZ1jA3-AOAEa-4">
          <mxGeometry x="0.1232" relative="1" as="geometry">
            <mxPoint x="3" y="-10" as="offset" />
          </mxGeometry>
        </mxCell>
        <mxCell id="wpWaf2XPzZ1jA3-AOAEa-14" style="edgeStyle=orthogonalEdgeStyle;rounded=0;orthogonalLoop=1;jettySize=auto;html=1;exitX=0.5;exitY=0;exitDx=0;exitDy=0;entryX=1;entryY=0;entryDx=0;entryDy=0;endArrow=open;endFill=0;" edge="1" parent="1" source="wpWaf2XPzZ1jA3-AOAEa-1" target="lB6DgSPYb84h1yMnMmWB-8">
          <mxGeometry relative="1" as="geometry">
            <Array as="points">
              <mxPoint x="245" y="150" />
            </Array>
          </mxGeometry>
        </mxCell>
        <mxCell id="wpWaf2XPzZ1jA3-AOAEa-18" value="Refuse" style="edgeLabel;html=1;align=center;verticalAlign=middle;resizable=0;points=[];" vertex="1" connectable="0" parent="wpWaf2XPzZ1jA3-AOAEa-14">
          <mxGeometry x="0.0471" y="-1" relative="1" as="geometry">
            <mxPoint x="-4" y="-9" as="offset" />
          </mxGeometry>
        </mxCell>
        <mxCell id="wpWaf2XPzZ1jA3-AOAEa-1" value="" style="rhombus;whiteSpace=wrap;html=1;" vertex="1" parent="1">
          <mxGeometry x="240" y="165" width="10" height="10" as="geometry" />
        </mxCell>
        <mxCell id="wpWaf2XPzZ1jA3-AOAEa-2" value="" style="endArrow=none;html=1;rounded=0;" edge="1" parent="1" source="aM9ryv3xv72pqoxQDRHE-6">
          <mxGeometry width="50" height="50" relative="1" as="geometry">
            <mxPoint x="210" y="220" as="sourcePoint" />
            <mxPoint x="250" y="170" as="targetPoint" />
          </mxGeometry>
        </mxCell>
        <mxCell id="wpWaf2XPzZ1jA3-AOAEa-3" value="" style="rounded=0;whiteSpace=wrap;html=1;" vertex="1" parent="1">
          <mxGeometry x="85" y="190" width="10" height="10" as="geometry" />
        </mxCell>
        <mxCell id="wpWaf2XPzZ1jA3-AOAEa-9" style="edgeStyle=orthogonalEdgeStyle;rounded=0;orthogonalLoop=1;jettySize=auto;html=1;exitX=0.5;exitY=1;exitDx=0;exitDy=0;entryX=1;entryY=0;entryDx=0;entryDy=0;endArrow=open;endFill=0;" edge="1" parent="1" source="wpWaf2XPzZ1jA3-AOAEa-6" target="wpWaf2XPzZ1jA3-AOAEa-8">
          <mxGeometry relative="1" as="geometry">
            <Array as="points">
              <mxPoint x="245" y="270" />
            </Array>
          </mxGeometry>
        </mxCell>
        <mxCell id="wpWaf2XPzZ1jA3-AOAEa-11" value="Inform" style="edgeLabel;html=1;align=center;verticalAlign=middle;resizable=0;points=[];" vertex="1" connectable="0" parent="wpWaf2XPzZ1jA3-AOAEa-9">
          <mxGeometry relative="1" as="geometry">
            <mxPoint x="-7" y="-10" as="offset" />
          </mxGeometry>
        </mxCell>
        <mxCell id="wpWaf2XPzZ1jA3-AOAEa-12" style="edgeStyle=orthogonalEdgeStyle;rounded=0;orthogonalLoop=1;jettySize=auto;html=1;exitX=0.5;exitY=0;exitDx=0;exitDy=0;entryX=1;entryY=0;entryDx=0;entryDy=0;endArrow=open;endFill=0;" edge="1" parent="1" source="wpWaf2XPzZ1jA3-AOAEa-6" target="lB6DgSPYb84h1yMnMmWB-11">
          <mxGeometry relative="1" as="geometry">
            <Array as="points">
              <mxPoint x="245" y="230" />
            </Array>
          </mxGeometry>
        </mxCell>
        <mxCell id="wpWaf2XPzZ1jA3-AOAEa-13" value="Failure" style="edgeLabel;html=1;align=center;verticalAlign=middle;resizable=0;points=[];" vertex="1" connectable="0" parent="wpWaf2XPzZ1jA3-AOAEa-12">
          <mxGeometry x="0.037" y="-1" relative="1" as="geometry">
            <mxPoint x="-4" y="-9" as="offset" />
          </mxGeometry>
        </mxCell>
        <mxCell id="wpWaf2XPzZ1jA3-AOAEa-6" value="" style="rhombus;whiteSpace=wrap;html=1;" vertex="1" parent="1">
          <mxGeometry x="240" y="245" width="10" height="10" as="geometry" />
        </mxCell>
        <mxCell id="wpWaf2XPzZ1jA3-AOAEa-7" value="" style="endArrow=none;html=1;rounded=0;" edge="1" parent="1">
          <mxGeometry width="50" height="50" relative="1" as="geometry">
            <mxPoint x="265" y="250" as="sourcePoint" />
            <mxPoint x="250" y="250" as="targetPoint" />
          </mxGeometry>
        </mxCell>
        <mxCell id="wpWaf2XPzZ1jA3-AOAEa-8" value="" style="rounded=0;whiteSpace=wrap;html=1;" vertex="1" parent="1">
          <mxGeometry x="85" y="270" width="10" height="30" as="geometry" />
        </mxCell>
        <mxCell id="wpWaf2XPzZ1jA3-AOAEa-16" value="" style="endArrow=open;html=1;rounded=0;endFill=0;" edge="1" parent="1" source="aM9ryv3xv72pqoxQDRHE-2" target="aM9ryv3xv72pqoxQDRHE-6">
          <mxGeometry width="50" height="50" relative="1" as="geometry">
            <mxPoint x="180" y="150" as="sourcePoint" />
            <mxPoint x="230" y="100" as="targetPoint" />
          </mxGeometry>
        </mxCell>
        <mxCell id="wpWaf2XPzZ1jA3-AOAEa-17" value="Request" style="edgeLabel;html=1;align=center;verticalAlign=middle;resizable=0;points=[];" vertex="1" connectable="0" parent="wpWaf2XPzZ1jA3-AOAEa-16">
          <mxGeometry x="-0.0719" y="-1" relative="1" as="geometry">
            <mxPoint x="-4" y="-11" as="offset" />
          </mxGeometry>
        </mxCell>
      </root>
    </mxGraphModel>
  </diagram>
</mxfile>
